<?xml version="1.0" encoding="UTF-8" standalone="no"?>
<!-- Created with Inkscape (http://www.inkscape.org/) -->

<svg
   xmlns:dc="http://purl.org/dc/elements/1.1/"
   xmlns:cc="http://creativecommons.org/ns#"
   xmlns:rdf="http://www.w3.org/1999/02/22-rdf-syntax-ns#"
   xmlns:svg="http://www.w3.org/2000/svg"
   xmlns="http://www.w3.org/2000/svg"
   xmlns:sodipodi="http://sodipodi.sourceforge.net/DTD/sodipodi-0.dtd"
   xmlns:inkscape="http://www.inkscape.org/namespaces/inkscape"
   version="1.2"
   width="200"
   height="200"
   id="svg2"
   inkscape:version="0.48.4 r9939"
   sodipodi:docname="mpk_logo.svg">
  <sodipodi:namedview
     pagecolor="#ffffff"
     bordercolor="#666666"
     borderopacity="1"
     objecttolerance="10"
     gridtolerance="10"
     guidetolerance="10"
     inkscape:pageopacity="0"
     inkscape:pageshadow="2"
     inkscape:window-width="1920"
     inkscape:window-height="1017"
     id="namedview16"
     showgrid="false"
     inkscape:zoom="1.888"
     inkscape:cx="217.43616"
     inkscape:cy="71.532074"
     inkscape:window-x="-8"
     inkscape:window-y="-8"
     inkscape:window-maximized="1"
     inkscape:current-layer="svg2" />
  <defs
     id="defs4">
    <clipPath
       id="clipPath3882">
      <path
         d="m 17.321756,37.767495 94.642854,0 0,945.520785 776.07141,0 0,-945.520785 94.64285,0 0,950.178525 -965.357114,0 z"
         id="path3884"
         style="fill:none;stroke:#000000;stroke-width:0.93895859px;stroke-linecap:butt;stroke-linejoin:miter;stroke-opacity:1"
         inkscape:connector-curvature="0" />
    </clipPath>
    <clipPath
       id="clipPath3886">
      <path
         d="m 130.89288,42.425612 0,940.863048 738.21426,0 0,-940.863048 z"
         id="path3888"
         style="fill:none;stroke:#000000;stroke-width:0.93895859px;stroke-linecap:butt;stroke-linejoin:miter;stroke-opacity:1"
         inkscape:connector-curvature="0" />
    </clipPath>
  </defs>
  <metadata
     id="metadata7">
    <rdf:RDF>
      <cc:Work
         rdf:about="">
        <dc:format>image/svg+xml</dc:format>
        <dc:type
           rdf:resource="http://purl.org/dc/dcmitype/StillImage" />
        <dc:title />
      </cc:Work>
    </rdf:RDF>
  </metadata>
  <g
     transform="matrix(0.2,0,0,0.2,-2.5891604e-4,-10.48153)"
     id="layer1">
    <path
       d="m 954.28571,512.85712 a 454.28571,447.14285 0 1 1 -908.571416,0 454.28571,447.14285 0 1 1 908.571416,0 z"
       transform="matrix(1.0566038,0,0,1.0734825,-28.301912,1.8190305)"
       clip-path="url(#clipPath3886)"
       id="path3758-4"
       style="fill:none;stroke:#0096c8;stroke-width:37.55831528;stroke-linecap:butt;stroke-linejoin:round;stroke-miterlimit:4;stroke-opacity:1;stroke-dasharray:none"
       inkscape:connector-curvature="0" />
    <path
       d="m 954.28571,512.85712 a 454.28571,447.14285 0 1 1 -908.571416,0 454.28571,447.14285 0 1 1 908.571416,0 z"
       transform="matrix(1.0566038,0,0,1.0734825,-28.302233,1.8194377)"
       clip-path="url(#clipPath3882)"
       id="path3758"
       style="fill:none;stroke:#436d7b;stroke-width:37.55831528;stroke-linecap:butt;stroke-linejoin:round;stroke-miterlimit:4;stroke-opacity:1;stroke-dasharray:none"
       inkscape:connector-curvature="0" />
    <g
       transform="matrix(0.93988068,0,0,1,51.808168,40.263741)"
       id="flowRoot3844"
       style="font-size:430px;font-style:normal;font-weight:normal;line-height:0%;letter-spacing:-30px;word-spacing:0px;fill:#436d7b;fill-opacity:1;stroke:none;font-family:Sans">
      <path
         d="m 61.914062,666 0,-307.80273 61.308598,0 72.85644,217.93945 c 6.71858,20.29629 11.61766,35.48345 14.69727,45.56152 3.49916,-11.19786 8.95814,-27.64478 16.37695,-49.34082 l 73.69629,-214.16015 54.7998,0 0,307.80273 -39.26269,0 0,-257.62207 L 226.94336,666 l -36.74316,0 -89.02344,-262.03125 0,262.03125 z"
         id="path2994"
         style="fill:#436d7b;font-family:arial;-inkscape-font-specification:arial"
         inkscape:connector-curvature="0" />
      <path
         d="m 386.78711,666 0,-307.80273 116.1084,0 c 20.43603,3e-4 36.04311,0.98012 46.82129,2.93945 15.11697,2.51983 27.7846,7.31394 38.00293,14.38232 10.21785,7.06897 18.44131,16.97212 24.67041,29.70948 6.22857,12.73787 9.34299,26.73526 9.34326,41.99218 -2.7e-4,26.17533 -8.32871,48.32618 -24.98535,66.45264 -16.65713,18.12676 -46.7515,27.19007 -90.28321,27.18994 l -78.94531,0 0,125.13672 z m 40.73242,-161.45996 79.5752,0 c 26.31492,1.6e-4 45.00143,-4.89892 56.05957,-14.69727 11.05772,-9.79799 16.58668,-23.58541 16.58691,-41.3623 -2.3e-4,-12.87738 -3.25462,-23.90031 -9.76318,-33.06885 -6.509,-9.16803 -15.0824,-15.2219 -25.72022,-18.16162 -6.85891,-1.81939 -19.52654,-2.72922 -38.00293,-2.72949 l -78.73535,0 z"
         id="path2996"
         style="letter-spacing:-35px;fill:#436d7b;font-family:Arial;-inkscape-font-specification:Arial"
         inkscape:connector-curvature="0" />
      <path
         d="m 637.33398,666 0,-307.80273 40.73243,0 0,152.6416 152.85156,-152.6416 55.21973,0 L 757.01172,482.91406 891.80664,666 l -53.75,0 -109.59961,-155.79102 -50.39062,49.13086 0,106.66016 z"
         id="path2998"
         style="letter-spacing:-35px;fill:#436d7b;font-family:Arial;-inkscape-font-specification:Arial"
         inkscape:connector-curvature="0" />
    </g>
  </g>
</svg>
