<?xml version="1.0" encoding="UTF-8" standalone="no"?>
<!-- Created with Inkscape (http://www.inkscape.org/) -->

<svg
   xmlns:dc="http://purl.org/dc/elements/1.1/"
   xmlns:cc="http://creativecommons.org/ns#"
   xmlns:rdf="http://www.w3.org/1999/02/22-rdf-syntax-ns#"
   xmlns:svg="http://www.w3.org/2000/svg"
   xmlns="http://www.w3.org/2000/svg"
   version="1.2"
   width="1000"
   height="200"
   id="svg2">
  <defs
     id="defs4">
    <clipPath
       id="clipPath3882">
      <path
         d="m 17.321756,37.767495 94.642854,0 0,945.520785 776.07141,0 0,-945.520785 94.64285,0 0,950.178525 -965.357114,0 z"
         id="path3884"
         style="fill:none;stroke:#000000;stroke-width:0.93895859px;stroke-linecap:butt;stroke-linejoin:miter;stroke-opacity:1" />
    </clipPath>
    <clipPath
       id="clipPath3886">
      <path
         d="m 130.89288,42.425612 0,940.863048 738.21426,0 0,-940.863048 z"
         id="path3888"
         style="fill:none;stroke:#000000;stroke-width:0.93895859px;stroke-linecap:butt;stroke-linejoin:miter;stroke-opacity:1" />
    </clipPath>
  </defs>
  <metadata
     id="metadata7">
    <rdf:RDF>
      <cc:Work
         rdf:about="">
        <dc:format>image/svg+xml</dc:format>
        <dc:type
           rdf:resource="http://purl.org/dc/dcmitype/StillImage" />
        <dc:title></dc:title>
      </cc:Work>
    </rdf:RDF>
  </metadata>
  <path
     d="m 0,0 0,200 1000,0 0,-200 z"
     id="path3009"
     style="fill:#ffffff;fill-opacity:1;stroke:none" />
  <g
     transform="matrix(0.20007289,0,0,0.20007289,-2.5889245e-4,-10.55824)"
     id="layer1">
    <path
       d="m 954.28571,512.85712 a 454.28571,447.14285 0 1 1 -908.571416,0 454.28571,447.14285 0 1 1 908.571416,0 z"
       transform="matrix(1.0566038,0,0,1.0734825,-28.301912,1.8190305)"
       clip-path="url(#clipPath3886)"
       id="path3758-4"
       style="fill:none;stroke:#0096c8;stroke-width:37.55831528;stroke-linecap:butt;stroke-linejoin:round;stroke-miterlimit:4;stroke-opacity:1;stroke-dasharray:none" />
    <path
       d="m 954.28571,512.85712 a 454.28571,447.14285 0 1 1 -908.571416,0 454.28571,447.14285 0 1 1 908.571416,0 z"
       transform="matrix(1.0566038,0,0,1.0734825,-28.302233,1.8194377)"
       clip-path="url(#clipPath3882)"
       id="path3758"
       style="fill:none;stroke:#436d7b;stroke-width:37.55831528;stroke-linecap:butt;stroke-linejoin:round;stroke-miterlimit:4;stroke-opacity:1;stroke-dasharray:none" />
    <g
       transform="matrix(0.93988068,0,0,1,51.808168,40.263741)"
       id="flowRoot3844"
       style="font-size:430px;font-style:normal;font-weight:normal;line-height:0%;letter-spacing:-30px;word-spacing:0px;fill:#436d7b;fill-opacity:1;stroke:none;font-family:Sans">
      <path
         d="m 61.914062,666 0,-307.80273 61.308598,0 72.85644,217.93945 c 6.71858,20.29629 11.61766,35.48345 14.69727,45.56152 3.49916,-11.19786 8.95814,-27.64478 16.37695,-49.34082 l 73.69629,-214.16015 54.7998,0 0,307.80273 -39.26269,0 0,-257.62207 L 226.94336,666 l -36.74316,0 -89.02344,-262.03125 0,262.03125 z"
         id="path2994"
         style="fill:#436d7b;font-family:arial;-inkscape-font-specification:arial" />
      <path
         d="m 386.78711,666 0,-307.80273 116.1084,0 c 20.43603,3e-4 36.04311,0.98012 46.82129,2.93945 15.11697,2.51983 27.7846,7.31394 38.00293,14.38232 10.21785,7.06897 18.44131,16.97212 24.67041,29.70948 6.22857,12.73787 9.34299,26.73526 9.34326,41.99218 -2.7e-4,26.17533 -8.32871,48.32618 -24.98535,66.45264 -16.65713,18.12676 -46.7515,27.19007 -90.28321,27.18994 l -78.94531,0 0,125.13672 z m 40.73242,-161.45996 79.5752,0 c 26.31492,1.6e-4 45.00143,-4.89892 56.05957,-14.69727 11.05772,-9.79799 16.58668,-23.58541 16.58691,-41.3623 -2.3e-4,-12.87738 -3.25462,-23.90031 -9.76318,-33.06885 -6.509,-9.16803 -15.0824,-15.2219 -25.72022,-18.16162 -6.85891,-1.81939 -19.52654,-2.72922 -38.00293,-2.72949 l -78.73535,0 z"
         id="path2996"
         style="letter-spacing:-35px;fill:#436d7b;font-family:Arial;-inkscape-font-specification:Arial" />
      <path
         d="m 637.33398,666 0,-307.80273 40.73243,0 0,152.6416 152.85156,-152.6416 55.21973,0 L 757.01172,482.91406 891.80664,666 l -53.75,0 -109.59961,-155.79102 -50.39062,49.13086 0,106.66016 z"
         id="path2998"
         style="letter-spacing:-35px;fill:#436d7b;font-family:Arial;-inkscape-font-specification:Arial" />
    </g>
  </g>
  <g
     transform="matrix(0.20007289,0,0,0.20007289,5.7830981,-0.88103)"
     id="flowRoot2993"
     style="font-size:40px;font-style:normal;font-weight:normal;line-height:125%;letter-spacing:0px;word-spacing:0px;fill:#000000;fill-opacity:1;stroke:none;font-family:Sans">
    <path
       d="m 1171.0938,716.34409 0,-429.49219 85.5468,0 101.6602,304.10156 c 9.3747,28.32041 16.2107,49.5118 20.5078,63.57422 4.8825,-15.62492 12.4997,-38.57412 22.8516,-68.84766 l 102.832,-298.82812 76.4648,0 0,429.49219 -54.7851,0 0,-359.47266 -124.8047,359.47266 -51.2695,0 -124.2188,-365.625 0,365.625 z"
       id="path3022"
       style="font-size:600px;font-variant:normal;font-stretch:normal;fill:#436d7b;fill-opacity:1;font-family:Arial;-inkscape-font-specification:Arial" />
    <path
       d="m 1626.3672,716.34409 109.9609,-286.32813 40.8203,0 117.1875,286.32813 -43.164,0 -33.3985,-86.71875 -119.7265,0 -31.4453,86.71875 z m 82.6172,-117.57813 97.0703,0 -29.8828,-79.29687 c -9.1147,-24.08832 -15.8856,-43.87997 -20.3125,-59.375 -3.646,18.35961 -8.7892,36.58876 -15.4297,54.6875 z"
       id="path3024"
       style="font-size:400px;fill:#008ebe;fill-opacity:1" />
    <path
       d="m 1997.8516,716.34409 0,-252.53907 -94.336,0 0,-33.78906 226.9532,0 0,33.78906 -94.7266,0 0,252.53907 z"
       id="path3026"
       style="font-size:400px;fill:#008ebe;fill-opacity:1" />
    <path
       d="m 2170.7031,716.34409 0,-286.32813 37.8907,0 0,117.57813 148.8281,0 0,-117.57813 37.8906,0 0,286.32813 -37.8906,0 0,-134.96094 -148.8281,0 0,134.96094 z"
       id="path3028"
       style="font-size:400px;fill:#008ebe;fill-opacity:1" />
    <path
       d="m 2474.0234,716.34409 0,-429.49219 162.0118,0 c 28.5153,4.3e-4 50.2927,1.36761 65.332,4.10156 21.0934,3.51605 38.7692,10.20549 53.0273,20.06836 14.2575,9.86368 25.7321,23.68202 34.4239,41.45508 8.691,17.77378 13.0367,37.30501 13.0371,58.59375 -4e-4,36.5237 -11.6215,67.43188 -34.8633,92.72461 -23.2425,25.29315 -65.2347,37.93963 -125.9766,37.93945 l -110.1562,0 0,174.60938 z m 56.836,-225.29297 111.0351,0 c 36.7185,2.2e-4 62.7927,-6.83571 78.2227,-20.50782 15.4294,-13.67161 23.1442,-32.90987 23.1445,-57.71484 -3e-4,-17.96843 -4.5413,-33.34927 -13.623,-46.14258 -9.0824,-12.7926 -21.0452,-21.23986 -35.8887,-25.34179 -9.5706,-2.53869 -27.2463,-3.80822 -53.0273,-3.8086 l -109.8633,0 z"
       id="path3030"
       style="font-size:600px;font-variant:normal;font-stretch:normal;fill:#436d7b;fill-opacity:1;font-family:Arial;-inkscape-font-specification:Arial" />
    <path
       d="m 2777.948,716.34409 109.9609,-286.32813 40.8203,0 117.1875,286.32813 -43.164,0 -33.3985,-86.71875 -119.7265,0 -31.4453,86.71875 z m 82.6172,-117.57813 97.0703,0 -29.8828,-79.29687 c -9.1147,-24.08832 -15.8856,-43.87997 -20.3125,-59.375 -3.646,18.35961 -8.7892,36.58876 -15.4297,54.6875 z"
       id="path3032"
       style="font-size:400px;fill:#008ebe;fill-opacity:1" />
    <path
       d="m 3077.1667,716.34409 0,-286.32813 126.9532,0 c 25.5206,2.9e-4 44.9216,2.5719 58.2031,7.71484 13.281,5.14351 23.893,14.22553 31.8359,27.2461 7.9425,13.02107 11.9138,27.40908 11.9141,43.16406 -3e-4,20.31269 -6.5758,37.43507 -19.7266,51.36719 -13.1512,13.93243 -33.4637,22.78659 -60.9375,26.5625 10.0259,4.81783 17.6431,9.57043 22.8516,14.25781 11.0675,10.15636 21.5492,22.85166 31.4453,38.08594 l 49.8047,77.92969 -47.6563,0 -37.8906,-59.57032 c -11.0679,-17.18742 -20.1825,-30.33845 -27.3437,-39.45312 -7.1617,-9.11448 -13.5744,-15.49468 -19.2383,-19.14063 -5.6642,-3.64571 -11.4259,-6.18477 -17.2852,-7.61718 -4.297,-0.91134 -11.3282,-1.36706 -21.0937,-1.36719 l -43.9453,0 0,127.14844 z m 37.8907,-159.96094 81.4453,0 c 17.3175,0 30.8592,-1.7902 40.625,-5.3711 9.7654,-3.58056 17.1873,-9.30972 22.2656,-17.1875 5.0779,-7.87741 7.617,-16.4386 7.6172,-25.68359 -2e-4,-13.54144 -4.9156,-24.67425 -14.7461,-33.39844 -9.8309,-8.7237 -25.3583,-13.08568 -46.582,-13.08593 l -90.625,0 z"
       id="path3034"
       style="font-size:400px;fill:#008ebe;fill-opacity:1" />
    <path
       d="m 3352.7527,624.3519 35.7422,-3.125 c 1.6926,14.323 5.6314,26.07429 11.8164,35.2539 6.1848,9.17974 15.7876,16.60161 28.8086,22.26563 13.0207,5.66409 27.6691,8.49612 43.9453,8.49609 14.4529,3e-5 27.2134,-2.1484 38.2812,-6.44531 11.0675,-4.29683 19.3032,-10.18876 24.7071,-17.67578 5.4034,-7.48692 8.1052,-15.65748 8.1054,-24.51172 -2e-4,-8.98429 -2.6043,-16.82933 -7.8125,-23.53516 -5.2085,-6.70562 -13.8022,-12.33712 -25.7812,-16.89453 -7.6825,-2.99467 -24.6747,-7.64961 -50.9766,-13.96484 -26.3022,-6.31497 -44.7266,-12.27199 -55.2734,-17.87109 -13.672,-7.16131 -23.8607,-16.04802 -30.5664,-26.66016 -6.7058,-10.61179 -10.0587,-22.49329 -10.0586,-35.64453 -1e-4,-14.4529 4.1015,-27.962 12.3047,-40.52735 8.203,-12.56483 20.1822,-22.10258 35.9375,-28.61328 15.7551,-6.51013 33.2681,-9.76533 52.539,-9.76562 21.2238,2.9e-4 39.9413,3.41826 56.1524,10.2539 16.2107,6.83622 28.6781,16.8948 37.4023,30.17579 8.7237,13.28148 13.4112,28.32053 14.0625,45.11718 l -36.3281,2.73438 c -1.9533,-18.09874 -8.5614,-31.7706 -19.8242,-41.01563 -11.2632,-9.24453 -27.8973,-13.86693 -49.9024,-13.86718 -22.9168,2.5e-4 -39.616,4.19947 -50.0976,12.59765 -10.4819,8.39868 -15.7228,18.52236 -15.7227,30.3711 -1e-4,10.28666 3.7109,18.75019 11.1328,25.39062 7.2916,6.64081 26.3346,13.44419 57.1289,20.41016 30.7941,6.96631 51.9204,13.05354 63.3789,18.26172 16.6665,7.68243 28.9712,17.41549 36.9141,29.19921 7.9425,11.78397 11.9138,25.35817 11.9141,40.72266 -3e-4,15.23444 -4.3623,29.5899 -13.086,43.06641 -8.7242,13.47658 -21.2567,23.95834 -37.5976,31.44531 -16.3414,7.48698 -34.7333,11.23046 -55.1758,11.23047 -25.9116,-10e-6 -47.6238,-3.77604 -65.1367,-11.32813 -17.5131,-7.55207 -31.2501,-18.91273 -41.211,-34.08203 -9.9609,-15.16921 -15.2018,-32.32414 -15.7226,-51.46484 z"
       id="path3036"
       style="font-size:400px;fill:#008ebe;fill-opacity:1" />
    <path
       d="m 3633.6121,716.34409 0,-286.32813 207.0312,0 0,33.78906 -169.1406,0 0,87.69532 158.3984,0 0,33.59375 -158.3984,0 0,97.46093 175.7812,0 0,33.78907 z"
       id="path3038"
       style="font-size:400px;fill:#008ebe;fill-opacity:1" />
    <path
       d="m 3913.1042,716.34409 0,-429.49219 56.836,0 0,212.98828 213.2812,-212.98828 77.0508,0 -180.1758,174.02344 188.086,255.46875 -75,0 -152.9297,-217.38282 -70.3125,68.55469 0,148.82813 z"
       id="path3040"
       style="font-size:600px;fill:#436d7b;fill-opacity:1" />
    <path
       d="m 4307.2449,716.34409 0,-286.32813 37.8906,0 0,286.32813 z"
       id="path3042"
       style="font-size:400px;fill:#008ebe;fill-opacity:1" />
    <path
       d="m 4484.5886,716.34409 0,-252.53907 -94.3359,0 0,-33.78906 226.9531,0 0,33.78906 -94.7266,0 0,252.53907 z"
       id="path3044"
       style="font-size:400px;fill:#008ebe;fill-opacity:1" />
  </g>
  <flowRoot
     transform="translate(0,-800)"
     id="flowRoot3013"
     xml:space="preserve"
     style="font-size:40px;font-style:normal;font-weight:normal;line-height:125%;letter-spacing:0px;word-spacing:0px;fill:#000000;fill-opacity:1;stroke:none;font-family:Sans"><flowRegion
       id="flowRegion3015"><rect
         width="16.949152"
         height="59.322033"
         x="2389.8306"
         y="-788.13562"
         id="rect3017" /></flowRegion><flowPara
       id="flowPara3019" /></flowRoot></svg>
